<svg xmlns="http://www.w3.org/2000/svg" viewBox="0 0 164 80.338">
    <path data-name="Path 1"
        d="m135.146 27.243.163.251c2.959-2.97 9.066-9.068 12.642-9.068v-.293h-12.47v.293c4.072 0 3.805 4.566-.335 8.817Z" />
    <path data-name="Path 2"
        d="M120.913 52.381V24.865c.058-4.273.351-6.439 3.688-6.439v-.293h-16.447v.293c3.337 0 3.688 2.166 3.688 6.439v27.516c0 4.332-.352 6.44-3.688 6.44v.293h16.451v-.293c-3.341-.001-3.634-2.107-3.692-6.44Z" />
    <path data-name="Path 3"
        d="M141.696 51.21c-1.946-3-6.959-11.768-8.717-14.382l-.415-.565c-2.119 1.985-4.276 5.09-6.274 6.9l.823 1.322 8.845 14.634h13.465v-.293c-1.698-.005-5.093-3.576-7.727-7.616Z" />
    <path data-name="Path 4"
        d="M90.473 18.133v.293c3.981 0 7.259 4.1 7.259 11.064v2.262h.293V29.49c0-6.966 3.22-11.064 7.2-11.064v-.293Z" />
    <g data-name="Group 1">
        <path data-name="Path 5"
            d="M96.7 43.296 75.72 18.133H62.078v.293c1.979 0 3.849 1.666 5.525 3.743l.043.055q.324.4.638.824l2.843 3.67c6.276 7.676 25.8 31.1 26.9 32.4V45.036Z" />
    </g>
    <g data-name="Group 2">
        <path data-name="Path 6"
            d="M55.056 52.381V38.5h-9.074v.006H30V24.865c0-4.273.351-6.439 3.63-6.439v-.293H17.237v.293c3.337 0 3.63 2.166 3.688 6.439v27.516c-.059 4.274-.351 6.44-3.688 6.44v.293h16.392v-.293c-3.279 0-3.63-2.166-3.63-6.44V39.922h15.982v12.459c0 4.274-.351 6.44-3.688 6.44v.293h16.45v-.293c-3.335-.001-3.628-2.166-3.687-6.44Z" />
        <path data-name="Path 7"
            d="M42.294 18.133v.293c3.337 0 3.688 2.166 3.688 6.439v2.129l9.074 10.094V24.865c.059-4.273.352-6.439 3.688-6.439v-.293Z" />
    </g>
    <path data-name="Path 8"
        d="M74.842 52.381v-4.912l-9.075-10.475v15.388c0 4.332-.351 6.44-3.688 6.44v.293H78.53v-.293c-3.337-.001-3.63-2.108-3.688-6.441Z" />
    <g data-name="Group 3">
        <path data-name="Path 9"
            d="M54.05 79.203a1.637 1.637 0 0 1-1.271 1.1 1.74 1.74 0 0 1-.343.03 1.828 1.828 0 0 1-.67-.122 2.223 2.223 0 0 1-.936-.723l.7-.548a1.259 1.259 0 0 0 .556.441.864.864 0 0 0 .518.046.747.747 0 0 0 .593-.472.66.66 0 0 0-.258-.639c-.251-.237-.662-.64-.693-.67l-.692-.654a1.608 1.608 0 0 1-.434-.677 1.211 1.211 0 0 1-.016-.715 1.292 1.292 0 0 1 .419-.632 1.469 1.469 0 0 1 .677-.319 1.5 1.5 0 0 1 .837.061 1.908 1.908 0 0 1 .769.571l-.693.555a.753.753 0 0 0-.746-.319.519.519 0 0 0-.411.327c-.03.107-.022.282.213.51l.944.906c.137.137.3.3.426.41a1.692 1.692 0 0 1 .495.739 1.339 1.339 0 0 1 .016.794Z" />
        <path data-name="Path 10"
            d="M59.134 80.117a2.821 2.821 0 0 1-1.728-2.6 2.882 2.882 0 0 1 .221-1.1 2.976 2.976 0 0 1 .609-.9 2.777 2.777 0 0 1 .9-.6 2.814 2.814 0 0 1 1.1-.221 2.884 2.884 0 0 1 1.1.221 2.779 2.779 0 0 1 1.5 1.5 2.882 2.882 0 0 1 .221 1.1 2.818 2.818 0 0 1-.221 1.1 2.783 2.783 0 0 1-.6.9 2.989 2.989 0 0 1-.9.609 2.885 2.885 0 0 1-1.1.221 2.815 2.815 0 0 1-1.102-.23Zm-.274-3.973a1.931 1.931 0 1 0 1.37-.57 1.931 1.931 0 0 0-1.371.57Z" />
        <path data-name="Path 11" d="M69.951 80.338h-3.242v-5.647h.883v4.848h2.359Z" />
        <path data-name="Path 12" d="M73.265 80.338v-5.647h.883v5.647Z" />
        <path data-name="Path 13"
            d="M82.132 79.878a3.171 3.171 0 0 1-.457.244 2.88 2.88 0 0 1-1.1.221 2.821 2.821 0 0 1-2.823-2.824 2.792 2.792 0 0 1 .829-2 2.653 2.653 0 0 1 .9-.6 2.687 2.687 0 0 1 1.1-.221 2.747 2.747 0 0 1 1.1.221c.038.015.084.038.122.053v1.043a1.938 1.938 0 0 0-2.6.137 1.938 1.938 0 1 0 2.74 2.74 2.588 2.588 0 0 0 .19-.213Z" />
        <path data-name="Path 14" d="M85.8 80.338v-5.647h.882v5.647Z" />
        <path data-name="Path 15" d="M94.148 75.478h-1.552v4.856h-.891v-4.856h-1.552v-.791h4Z" />
        <path data-name="Path 16"
            d="M98.692 80.117a2.822 2.822 0 0 1-1.728-2.6 2.88 2.88 0 0 1 .221-1.1 2.974 2.974 0 0 1 .609-.9 2.776 2.776 0 0 1 .9-.6 2.815 2.815 0 0 1 1.1-.221 2.883 2.883 0 0 1 1.1.221 2.779 2.779 0 0 1 1.5 1.5 2.881 2.881 0 0 1 .221 1.1 2.817 2.817 0 0 1-.221 1.1 2.783 2.783 0 0 1-.6.9 2.988 2.988 0 0 1-.9.609 2.884 2.884 0 0 1-1.1.221 2.816 2.816 0 0 1-1.102-.23Zm-.274-3.973a1.931 1.931 0 1 0 1.37-.57 1.931 1.931 0 0 0-1.371.57Z" />
        <path data-name="Path 17"
            d="M110.221 80.338h-1l-1.423-1.91h-.64v1.91h-.883v-5.647h1.674a1.794 1.794 0 0 1 1.408.563 2.093 2.093 0 0 1 0 2.61 1.576 1.576 0 0 1-.655.434Zm-2.276-2.7a1.038 1.038 0 0 0 .814-.3 1.312 1.312 0 0 0 0-1.545 1.037 1.037 0 0 0-.814-.3h-.787v2.146Z" />
        <path data-name="Path 18"
            d="M116.621 79.203a1.636 1.636 0 0 1-1.271 1.1 1.739 1.739 0 0 1-.343.03 1.83 1.83 0 0 1-.67-.122 2.225 2.225 0 0 1-.936-.723l.7-.548a1.256 1.256 0 0 0 .555.441.864.864 0 0 0 .518.046.747.747 0 0 0 .594-.472.66.66 0 0 0-.259-.639c-.251-.237-.662-.64-.693-.67l-.692-.654a1.608 1.608 0 0 1-.434-.677 1.21 1.21 0 0 1-.015-.715 1.288 1.288 0 0 1 .419-.632 1.471 1.471 0 0 1 .677-.319 1.5 1.5 0 0 1 .837.061 1.906 1.906 0 0 1 .769.571l-.693.555a.753.753 0 0 0-.746-.319.517.517 0 0 0-.411.327c-.031.107-.023.282.213.51l.944.906c.137.137.3.3.426.41a1.693 1.693 0 0 1 .495.739 1.342 1.342 0 0 1 .016.794Z" />
    </g>
    <path data-name="Path 19" d="M0 0v78.6h40.963v-2.246H2.245V2.244h159.509v74.11h-35.9V78.6h38.149V0Z" />
</svg>