<svg xmlns="http://www.w3.org/2000/svg" viewBox="0 0 174.747 85.602"><path data-name="Path 1" d="m144.002 29.029.174.267c3.153-3.165 9.66-9.662 13.47-9.662v-.312h-13.287v.312c4.339 0 4.054 4.869-.357 9.395Z" fill="#fff"/><path data-name="Path 2" d="M128.841 55.814V26.495c.062-4.553.374-6.861 3.93-6.861v-.312h-17.53v.312c3.556 0 3.93 2.308 3.93 6.861v29.319c0 4.616-.375 6.862-3.93 6.862v.312h17.529v-.312c-3.56 0-3.872-2.246-3.929-6.862Z" fill="#fff"/><path data-name="Path 3" d="M150.981 54.566c-2.073-3.2-7.415-12.539-9.288-15.325l-.442-.6c-2.258 2.115-4.556 5.423-6.685 7.347l.877 1.408 9.425 15.593h14.347v-.312c-1.809-.001-5.427-3.807-8.234-8.111Z" fill="#fff"/><path data-name="Path 4" d="M96.401 19.322v.312c4.242 0 7.735 4.366 7.735 11.789v2.41h.312v-2.41c0-7.423 3.431-11.789 7.673-11.789v-.312Z" fill="#fff"/><g data-name="Group 1"><path data-name="Path 5" d="M103.037 46.134 80.682 19.322H66.146v.312c2.109 0 4.1 1.775 5.887 3.989l.045.058q.345.43.68.878l3.029 3.911c6.687 8.179 27.49 33.138 28.66 34.521v-15Z" fill="#fff"/></g><g data-name="Group 2" fill="#fff"><path data-name="Path 6" d="M58.664 55.814v-14.79h-9.669v.007H31.966V26.495c0-4.553.374-6.861 3.867-6.861v-.312H18.367v.312c3.556 0 3.867 2.308 3.93 6.861v29.319c-.063 4.554-.374 6.862-3.93 6.862v.312h17.467v-.312c-3.493 0-3.867-2.308-3.867-6.862V42.539h17.029v13.275c0 4.554-.374 6.862-3.93 6.862v.312h17.528v-.312c-3.555 0-3.867-2.308-3.93-6.862Z"/><path data-name="Path 7" d="M45.066 19.322v.312c3.555 0 3.93 2.308 3.93 6.861v2.269l9.669 10.755V26.495c.063-4.553.375-6.861 3.93-6.861v-.312Z"/></g><path data-name="Path 8" d="M79.746 55.818v-5.234l-9.669-11.166v16.4c0 4.616-.374 6.862-3.93 6.862v.312h17.529v-.312c-3.556-.004-3.868-2.25-3.93-6.862Z" fill="#fff"/><g data-name="Group 3" fill="#fff"><path data-name="Path 9" d="M57.595 84.394a1.744 1.744 0 0 1-1.354 1.176 1.856 1.856 0 0 1-.365.032 1.948 1.948 0 0 1-.714-.13 2.369 2.369 0 0 1-1-.77l.746-.584a1.341 1.341 0 0 0 .592.47.92.92 0 0 0 .552.049.8.8 0 0 0 .632-.5.7.7 0 0 0-.275-.681c-.267-.252-.705-.682-.738-.714l-.738-.7a1.712 1.712 0 0 1-.462-.722 1.29 1.29 0 0 1-.017-.762 1.377 1.377 0 0 1 .447-.673 1.565 1.565 0 0 1 .721-.34 1.6 1.6 0 0 1 .892.065 2.032 2.032 0 0 1 .82.608l-.738.591a.8.8 0 0 0-.795-.34.553.553 0 0 0-.438.349c-.032.114-.024.3.227.543l1.006.966c.146.146.324.316.454.437a1.8 1.8 0 0 1 .527.787 1.426 1.426 0 0 1 .018.843Z"/><path data-name="Path 10" d="M63.009 85.367a3.006 3.006 0 0 1-1.841-2.773 3.071 3.071 0 0 1 .235-1.176 3.171 3.171 0 0 1 .648-.957 2.959 2.959 0 0 1 .957-.641 3 3 0 0 1 1.167-.235 3.073 3.073 0 0 1 1.176.235 2.962 2.962 0 0 1 1.6 1.6 3.071 3.071 0 0 1 .235 1.176 3 3 0 0 1-.235 1.168 2.966 2.966 0 0 1-.64.957 3.186 3.186 0 0 1-.957.649 3.075 3.075 0 0 1-1.176.235 3 3 0 0 1-1.169-.238Zm-.292-4.233a2.057 2.057 0 1 0 1.46-.608 2.058 2.058 0 0 0-1.461.608Z"/><path data-name="Path 11" d="M74.54 85.602h-3.455v-6.017h.941v5.166h2.514Z"/><path data-name="Path 12" d="M78.066 85.602v-6.017h.941v6.017Z"/><path data-name="Path 13" d="M87.514 85.107a3.38 3.38 0 0 1-.487.26 3.069 3.069 0 0 1-1.176.235 3.006 3.006 0 0 1-3.008-3.009 2.975 2.975 0 0 1 .884-2.133 2.826 2.826 0 0 1 .957-.641 2.863 2.863 0 0 1 1.168-.235 2.927 2.927 0 0 1 1.176.235c.04.016.089.04.13.057v1.111a2.065 2.065 0 0 0-2.765.146 2.064 2.064 0 1 0 2.919 2.92 2.751 2.751 0 0 0 .2-.227Z"/><path data-name="Path 14" d="M91.422 85.602v-6.017h.94v6.017Z"/><path data-name="Path 15" d="M100.318 80.428h-1.654v5.174h-.949v-5.174h-1.654v-.843h4.257Z"/><path data-name="Path 16" d="M105.159 85.367a3.006 3.006 0 0 1-1.841-2.773 3.069 3.069 0 0 1 .235-1.176 3.168 3.168 0 0 1 .648-.957 2.958 2.958 0 0 1 .957-.641 3 3 0 0 1 1.167-.235 3.071 3.071 0 0 1 1.176.235 2.961 2.961 0 0 1 1.6 1.6 3.069 3.069 0 0 1 .235 1.176 3 3 0 0 1-.235 1.168 2.965 2.965 0 0 1-.64.957 3.185 3.185 0 0 1-.957.649 3.073 3.073 0 0 1-1.176.235 3 3 0 0 1-1.169-.238Zm-.292-4.233a2.057 2.057 0 1 0 1.46-.608 2.057 2.057 0 0 0-1.461.608Z"/><path data-name="Path 17" d="M117.444 85.602h-1.062l-1.516-2.035h-.69v2.035h-.941v-6.017h1.787a1.912 1.912 0 0 1 1.5.6 2.23 2.23 0 0 1 0 2.781 1.679 1.679 0 0 1-.7.462Zm-2.425-2.879a1.106 1.106 0 0 0 .868-.325 1.4 1.4 0 0 0 0-1.646 1.1 1.1 0 0 0-.868-.316h-.843v2.287Z"/><path data-name="Path 18" d="M124.268 84.394a1.743 1.743 0 0 1-1.354 1.176 1.855 1.855 0 0 1-.365.032 1.95 1.95 0 0 1-.713-.13 2.371 2.371 0 0 1-1-.77l.746-.584a1.338 1.338 0 0 0 .591.47.92.92 0 0 0 .552.049.8.8 0 0 0 .633-.5.7.7 0 0 0-.276-.681 62.796 62.796 0 0 1-.738-.714l-.738-.7a1.713 1.713 0 0 1-.462-.722 1.29 1.29 0 0 1-.016-.762 1.373 1.373 0 0 1 .446-.673 1.567 1.567 0 0 1 .722-.34 1.6 1.6 0 0 1 .892.065 2.031 2.031 0 0 1 .819.608l-.738.591a.8.8 0 0 0-.795-.34.551.551 0 0 0-.438.349c-.033.114-.024.3.227.543l1.006.966c.146.146.325.316.454.437a1.8 1.8 0 0 1 .527.787 1.429 1.429 0 0 1 .018.843Z"/></g><path data-name="Path 19" d="M0 0v83.752h43.648v-2.393H2.392V2.393h169.962v78.966h-38.257v2.393h40.649V0Z" fill="#fff"/></svg>