<svg xmlns="http://www.w3.org/2000/svg" viewBox="0 0 260 86"><g data-name="Group 193" fill="#fff"><path data-name="Path 78" d="M110.49 24.892a.6.6 0 0 0-.485-.409l-7.909-1.149-3.537-7.167a.6.6 0 0 0-1.077 0l-3.537 7.167-7.909 1.149a.6.6 0 0 0-.333 1.024l5.723 5.579-1.351 7.877a.6.6 0 0 0 .871.633l7.074-3.719 7.074 3.719a.6.6 0 0 0 .872-.633l-1.351-7.877 5.723-5.579a.6.6 0 0 0 .152-.615Z"/><path data-name="Path 79" d="M144.044 24.892a.6.6 0 0 0-.485-.409l-7.909-1.149-3.537-7.167a.6.6 0 0 0-1.077 0l-3.537 7.167-7.909 1.149a.6.6 0 0 0-.333 1.024l5.723 5.579-1.351 7.877a.6.6 0 0 0 .871.633l7.074-3.719 7.074 3.719a.6.6 0 0 0 .872-.633l-1.351-7.877 5.723-5.579a.6.6 0 0 0 .152-.615Z"/><path data-name="Path 80" d="M177.598 24.892a.6.6 0 0 0-.485-.409l-7.909-1.149-3.537-7.167a.6.6 0 0 0-1.077 0l-3.537 7.167-7.909 1.149a.6.6 0 0 0-.333 1.024l5.723 5.579-1.351 7.877a.6.6 0 0 0 .871.633l7.074-3.719 7.074 3.719a.6.6 0 0 0 .872-.633l-1.351-7.877 5.723-5.579a.6.6 0 0 0 .152-.615Z"/><path data-name="Path 81" d="M211.152 24.892a.6.6 0 0 0-.485-.409l-7.909-1.149-3.537-7.167a.6.6 0 0 0-1.077 0l-3.537 7.167-7.909 1.149a.6.6 0 0 0-.333 1.024l5.723 5.579-1.351 7.877a.6.6 0 0 0 .871.633l7.074-3.719 7.074 3.719a.6.6 0 0 0 .872-.633l-1.351-7.877L211 25.507a.6.6 0 0 0 .152-.615Z"/><path data-name="Path 83" d="M244.705 24.892a.6.6 0 0 0-.485-.409l-7.909-1.149-3.537-7.167a.6.6 0 0 0-1.077 0l-3.537 7.167-7.909 1.149a.6.6 0 0 0-.333 1.024l5.723 5.579-1.351 7.877a.6.6 0 0 0 .871.633l7.074-3.719 7.074 3.719a.6.6 0 0 0 .872-.633l-1.351-7.877 5.723-5.579a.6.6 0 0 0 .152-.615Z"/><text data-name="4.6" font-size="40" font-family="Muli-Bold, Muli" font-weight="700"><tspan x="0" y="40">4.6</tspan></text><text data-name="Based on 102 reviews" transform="translate(0 58)" font-size="22" font-family="Muli-SemiBold, Muli" font-weight="600"><tspan x="0" y="22">Based on 102 reviews</tspan></text></g></svg>