<svg xmlns="http://www.w3.org/2000/svg" viewBox="0 0 39.186 39.186"><g data-name="line facebook"><g data-name="Group 37"><g data-name="Group 33"><path data-name="Path 30" d="M19.593 39.186a19.593 19.593 0 1 1 19.593-19.593 19.615 19.615 0 0 1-19.593 19.593Zm0-37.223a17.63 17.63 0 1 0 17.63 17.63 17.65 17.65 0 0 0-17.63-17.631Z" fill="#fff"/></g><g data-name="Group 36"><g data-name="Group 35"><g data-name="Group 34"><path data-name="Path 31" d="m16.399 31.278 4.684.024.06-11.709 3.476.018.451-4.681-3.722-.019.01-1.873a.992.992 0 0 1 1.041-1.12l2.628.013.02-4.013-3.618-.033c-4.016-.02-4.944 2.968-4.953 4.883l-.011 2.117-2.323-.012-.024 4.683 2.342.012-.061 11.71Z" fill="#fff"/></g></g></g></g></g></svg>