<svg xmlns="http://www.w3.org/2000/svg" viewBox="0 0 39.186 39.185"><g data-name="line instagram"><g data-name="Group 48"><g data-name="Group 43"><path data-name="Path 34" d="M19.593 39.185a19.593 19.593 0 1 1 19.593-19.593 19.615 19.615 0 0 1-19.593 19.593Zm0-37.223a17.63 17.63 0 1 0 17.63 17.63 17.65 17.65 0 0 0-17.63-17.63Z" fill="#fff"/></g><g data-name="Group 47"><g data-name="Group 46"><g data-name="Group 44"><path data-name="Path 35" d="M25.486 29.987H13.699a4.383 4.383 0 0 1-4.427-4.326V13.524a4.382 4.382 0 0 1 4.427-4.326h11.787a4.382 4.382 0 0 1 4.427 4.326v12.137a4.382 4.382 0 0 1-4.427 4.326ZM13.699 10.98a2.6 2.6 0 0 0-2.646 2.544v12.137a2.6 2.6 0 0 0 2.646 2.544h11.787a2.6 2.6 0 0 0 2.645-2.544V13.524a2.6 2.6 0 0 0-2.645-2.544Z" fill="#fff"/></g><g data-name="Group 45"><path data-name="Path 36" d="M19.592 24.988a5.4 5.4 0 1 1 5.4-5.4 5.4 5.4 0 0 1-5.4 5.4Zm0-9.01a3.614 3.614 0 1 0 3.614 3.614 3.617 3.617 0 0 0-3.614-3.613Z" fill="#fff"/></g><path data-name="Path 37" d="M26.646 13.923a1.262 1.262 0 1 1-1.262-1.262 1.262 1.262 0 0 1 1.262 1.262Z" fill="#fff"/></g></g></g></g></svg>