<svg data-name="Group 57" xmlns="http://www.w3.org/2000/svg" viewBox="0 0 39.195 39.195"><g data-name="Group 51"><g data-name="Group 50"><path data-name="Path 38" d="M19.598 39.195a19.6 19.6 0 1 1 19.6-19.6 19.62 19.62 0 0 1-19.6 19.6Zm0-37.232a17.635 17.635 0 1 0 17.635 17.635A17.655 17.655 0 0 0 19.598 1.963Z" fill="#fff"/></g></g><g data-name="Group 52" fill="#fff"><path data-name="Path 39" d="M15.241 11.752a1.785 1.785 0 0 1-1.918 1.778 1.791 1.791 0 1 1 .023-3.579 1.783 1.783 0 0 1 1.895 1.801Zm-3.672 14.62V14.933h3.555v11.438Z"/><path data-name="Path 40" d="M17.977 18.582c0-1.427-.047-2.643-.093-3.649h3.087l.164 1.567h.07a4.188 4.188 0 0 1 3.532-1.824c2.339 0 4.093 1.544 4.093 4.912v6.784h-3.555v-6.34c0-1.474-.515-2.48-1.8-2.48a1.9 1.9 0 0 0-1.8 1.333 2.53 2.53 0 0 0-.141.889v6.6h-3.555Z"/></g></svg>