<svg xmlns="http://www.w3.org/2000/svg" viewBox="0 0 39.186 39.186"><g data-name="line twitter"><g data-name="Group 42"><g data-name="Group 38"><path data-name="Path 32" d="M19.593 39.186a19.593 19.593 0 1 1 19.593-19.593 19.615 19.615 0 0 1-19.593 19.593Zm0-37.223a17.63 17.63 0 1 0 17.63 17.63 17.65 17.65 0 0 0-17.63-17.631Z" fill="#fff"/></g><g data-name="Group 41"><g data-name="Group 40"><g data-name="Group 39"><path data-name="Path 33" d="M31.187 10.342a10.1 10.1 0 0 1-3.183 1.159 5.016 5.016 0 0 0-3.626-1.591 4.919 4.919 0 0 0-4.927 5.981 14.246 14.246 0 0 1-10.233-5.244 4.832 4.832 0 0 0-.7 2.463 4.894 4.894 0 0 0 2.178 4.113 5.029 5.029 0 0 1-2.254-.638v.061a4.938 4.938 0 0 0 3.952 4.862 5.059 5.059 0 0 1-1.317.158 5.126 5.126 0 0 1-.938-.1 4.989 4.989 0 0 0 4.626 3.462 10.123 10.123 0 0 1-6.223 2.037 10.328 10.328 0 0 1-1.19-.081 14.3 14.3 0 0 0 7.629 2.289 13.988 13.988 0 0 0 14.352-13.827c0-.213 0-.426-.006-.636a10.068 10.068 0 0 0 2.517-2.517 10.07 10.07 0 0 1-2.876.743 4.934 4.934 0 0 0 2.219-2.694Z" fill="#fff"/></g></g></g></g></g></svg>